<?xml version="1.0" encoding="utf-8"?>
<svg width="91px" height="64px" viewBox="0 0 91 64" version="1.1" xmlns:xlink="http://www.w3.org/1999/xlink" xmlns="http://www.w3.org/2000/svg">
  <desc>Created with Lunacy</desc>
  <path d="M4.15998 53.9847C4.15998 53.9847 -8.46281 23.1991 10.2678 21.6598C28.9984 20.1205 36.5174 44.5681 26.7588 45.9035C17.0003 47.2389 6.18716 24.6674 15.2358 14.4713C24.2844 4.27515 48.9402 16.9057 49.3577 30.3182C49.7753 43.7308 33.6253 5.76538 54.8547 13.0013C62.4969 15.6061 61.2183 24.0072 57.9086 23.3914C54.5989 22.7757 51.2644 11.5179 57.2978 8.38339C63.3312 5.24889 69.6057 8.06106 71.3457 10.6923C73.0858 13.3236 65.0536 13.624 71.9565 5.49724C78.8593 -2.62948 82.752 0.657189 82.752 0.657189" transform="matrix(-0.997564 0.0697563 -0.0697563 -0.997564 88.45084 55.98779)" id="New-shape-3" fill="none" stroke="#E5875F" stroke-width="4" stroke-linecap="round" stroke-linejoin="round" />
</svg>