<?xml version="1.0" encoding="utf-8"?>
<svg width="201px" height="97px" viewBox="0 0 201 97" version="1.1" xmlns:xlink="http://www.w3.org/1999/xlink" xmlns="http://www.w3.org/2000/svg">
  <desc>Created with Lunacy</desc>
  <path d="M0 49.9554C0 49.9554 8.36486 70.9278 25.8546 46.3268C43.3433 21.7257 44.4043 2.95169 37.9077 1.9907C31.4096 1.02925 22.2788 40.9359 31.7228 64.6276C41.166 88.3176 62.0418 50.2202 63.6079 42.6891C65.1751 35.1569 72.6155 3.02619 65.8725 0.105087C59.1318 -2.81601 52.576 56.0522 67.3981 65.7838C82.2199 75.5161 91.6126 44.8927 93.7456 37.3414C95.8807 29.7899 97.7284 8.08079 94.3191 8.58909C90.9103 9.09791 78.5489 65.9265 96.3401 68.8677C114.131 71.8084 116.304 13.851 113.515 11.5854C110.727 9.31763 99.8918 65.5987 109.468 68.4231C119.044 71.2474 130.102 32.4561 123.322 31.5034C116.541 30.553 117.131 72.3691 132.322 63.5905C147.512 54.8101 143.735 25.075 139.529 22.8562C135.324 20.6361 135.534 58.7588 144.89 58.4393C154.246 58.1251 159.709 34.3249 159.709 34.3249C159.709 34.3249 160.839 61.0622 167.894 62.3976C174.951 63.7336 180.089 35.6595 180.089 35.6595C180.089 35.6595 182.644 61.0993 189.992 47.8634" transform="matrix(0.9945219 0.1045284 -0.1045284 0.9945219 9.7547 2.198097)" id="New-shape-2" fill="none" stroke="#3E4644" stroke-width="4" stroke-linecap="round" stroke-linejoin="round" />
</svg>